HIERARCHY
ROOT Hips
{
	OFFSET 0.000000 0.000000 0.000000
	CHANNELS 6 Xposition Yposition Zposition Zrotation Yrotation Xrotation 
	JOINT Spine1
	{
		OFFSET -0.013727 5.003763 -0.053727
		CHANNELS 3 Zrotation Yrotation Xrotation
		JOINT Spine2
		{
			OFFSET -0.000000 7.125303 -0.029825
			CHANNELS 3 Zrotation Yrotation Xrotation
			JOINT Chest
			{
				OFFSET -0.000001 7.550062 -0.815971
				CHANNELS 3 Zrotation Yrotation Xrotation
				JOINT Neck1
				{
					OFFSET -0.181677 26.311296 -0.553349
					CHANNELS 3 Zrotation Yrotation Xrotation
					JOINT Neck2
					{
						OFFSET -0.000003 7.709399 2.302586
						CHANNELS 3 Zrotation Yrotation Xrotation
						JOINT Head
						{
							OFFSET -0.000005 6.128912 1.953708
							CHANNELS 3 Zrotation Yrotation Xrotation
							JOINT HeadEnd
							{
								OFFSET 0.003598 16.065401 -1.835379
								CHANNELS 3 Zrotation Yrotation Xrotation
								End Site
								{
									OFFSET 0.000000 0.000000 0.000000
								}
							}
							JOINT Jaw
							{
								OFFSET 0.002637 0.475593 3.094941
								CHANNELS 3 Zrotation Yrotation Xrotation
								End Site
								{
									OFFSET 0.000000 0.000000 0.000000
								}
							}
							JOINT LeftEye
							{
								OFFSET 3.206381 5.380209 7.586883
								CHANNELS 3 Zrotation Yrotation Xrotation
								End Site
								{
									OFFSET 0.000000 0.000000 0.000000
								}
							}
							JOINT RightEye
							{
								OFFSET -3.222440 5.361867 7.558233
								CHANNELS 3 Zrotation Yrotation Xrotation
								End Site
								{
									OFFSET 0.000000 0.000000 0.000000
								}
							}
						}
					}
				}
				JOINT LeftShoulder
				{
					OFFSET 1.621652 23.237164 5.113413
					CHANNELS 3 Zrotation Yrotation Xrotation
					JOINT LeftArm
					{
						OFFSET 14.919845 -0.000001 -5.502326
						CHANNELS 3 Zrotation Yrotation Xrotation
						JOINT LeftForeArm
						{
							OFFSET 28.739309 0.000002 -0.002588
							CHANNELS 3 Zrotation Yrotation Xrotation
							JOINT LeftHand
							{
								OFFSET 27.093979 -0.000002 0.002609
								CHANNELS 3 Zrotation Yrotation Xrotation
								JOINT LeftHandThumb1
								{
									OFFSET 2.276479 -1.392046 3.191412
									CHANNELS 3 Zrotation Yrotation Xrotation
									JOINT LeftHandThumb2
									{
										OFFSET 4.012843 -1.828125 1.641656
										CHANNELS 3 Zrotation Yrotation Xrotation
										JOINT LeftHandThumb3
										{
											OFFSET 2.798517 0.000000 -0.000003
											CHANNELS 3 Zrotation Yrotation Xrotation
											JOINT LeftHandThumbEnd
											{
												OFFSET 3.180791 -0.000003 0.000002
												CHANNELS 3 Zrotation Yrotation Xrotation
												End Site
												{
													OFFSET 0.000000 0.000000 0.000000
												}
											}
										}
									}
								}
								JOINT LeftHandIndex1
								{
									OFFSET 3.247554 -0.531998 2.296169
									CHANNELS 3 Zrotation Yrotation Xrotation
									JOINT LeftHandIndex2
									{
										OFFSET 6.364578 0.012062 0.178599
										CHANNELS 3 Zrotation Yrotation Xrotation
										JOINT LeftHandIndex3
										{
											OFFSET 3.662366 0.000001 0.000000
											CHANNELS 3 Zrotation Yrotation Xrotation
											JOINT LeftHandIndex4
											{
												OFFSET 2.329243 0.000003 0.000004
												CHANNELS 3 Zrotation Yrotation Xrotation
												JOINT LeftHandIndexEnd
												{
													OFFSET 2.759619 -0.180539 -0.113024
													CHANNELS 3 Zrotation Yrotation Xrotation
													End Site
													{
														OFFSET 0.000000 0.000000 0.000000
													}
												}
											}
										}
									}
								}
								JOINT LeftHandMiddle1
								{
									OFFSET 3.163499 0.240982 1.000332
									CHANNELS 3 Zrotation Yrotation Xrotation
									JOINT LeftHandMiddle2
									{
										OFFSET 6.190778 -0.259276 -1.002548
										CHANNELS 3 Zrotation Yrotation Xrotation
										JOINT LeftHandMiddle3
										{
											OFFSET 4.356523 -0.000006 0.000000
											CHANNELS 3 Zrotation Yrotation Xrotation
											JOINT LeftHandMiddle4
											{
												OFFSET 2.996874 -0.000007 0.000001
												CHANNELS 3 Zrotation Yrotation Xrotation
												JOINT LeftHandMiddleEnd
												{
													OFFSET 2.304294 -0.294571 -0.031740
													CHANNELS 3 Zrotation Yrotation Xrotation
													End Site
													{
														OFFSET 0.000000 0.000000 0.000000
													}
												}
											}
										}
									}
								}
								JOINT LeftHandRing1
								{
									OFFSET 2.882642 -0.053650 -0.322544
									CHANNELS 3 Zrotation Yrotation Xrotation
									JOINT LeftHandRing2
									{
										OFFSET 5.854543 -0.486203 -1.373841
										CHANNELS 3 Zrotation Yrotation Xrotation
										JOINT LeftHandRing3
										{
											OFFSET 4.350580 0.000000 0.000003
											CHANNELS 3 Zrotation Yrotation Xrotation
											JOINT LeftHandRing4
											{
												OFFSET 2.651324 0.000007 0.000003
												CHANNELS 3 Zrotation Yrotation Xrotation
												JOINT LeftHandRingEnd
												{
													OFFSET 1.936111 0.077686 -0.000070
													CHANNELS 3 Zrotation Yrotation Xrotation
													End Site
													{
														OFFSET 0.000000 0.000000 0.000000
													}
												}
											}
										}
									}
								}
								JOINT LeftHandPinky1
								{
									OFFSET 2.865499 -0.310004 -1.600378
									CHANNELS 3 Zrotation Yrotation Xrotation
									JOINT LeftHandPinky2
									{
										OFFSET 5.087853 -1.331141 -1.771231
										CHANNELS 3 Zrotation Yrotation Xrotation
										JOINT LeftHandPinky3
										{
											OFFSET 3.070975 0.000003 0.000000
											CHANNELS 3 Zrotation Yrotation Xrotation
											JOINT LeftHandPinky4
											{
												OFFSET 1.549668 0.000001 0.000001
												CHANNELS 3 Zrotation Yrotation Xrotation
												JOINT LeftHandPinkyEnd
												{
													OFFSET 1.944894 -0.157802 0.057219
													CHANNELS 3 Zrotation Yrotation Xrotation
													End Site
													{
														OFFSET 0.000000 0.000000 0.000000
													}
												}
											}
										}
									}
								}
							}
						}
					}
				}
				JOINT RightShoulder
				{
					OFFSET -1.380118 23.180307 5.214158
					CHANNELS 3 Zrotation Yrotation Xrotation
					JOINT RightArm
					{
						OFFSET -15.037197 0.000012 -5.545604
						CHANNELS 3 Zrotation Yrotation Xrotation
						JOINT RightForeArm
						{
							OFFSET -28.736639 0.000004 -0.002597
							CHANNELS 3 Zrotation Yrotation Xrotation
							JOINT RightHand
							{
								OFFSET -27.133617 -0.000000 0.002613
								CHANNELS 3 Zrotation Yrotation Xrotation
								JOINT RightHandThumb1
								{
									OFFSET -2.274037 -1.383990 3.163127
									CHANNELS 3 Zrotation Yrotation Xrotation
									JOINT RightHandThumb2
									{
										OFFSET -4.011427 -1.827468 1.640914
										CHANNELS 3 Zrotation Yrotation Xrotation
										JOINT RightHandThumb3
										{
											OFFSET -2.794935 -0.000002 -0.000003
											CHANNELS 3 Zrotation Yrotation Xrotation
											JOINT RightHandThumbEnd
											{
												OFFSET -3.183854 0.000002 -0.000001
												CHANNELS 3 Zrotation Yrotation Xrotation
												End Site
												{
													OFFSET 0.000000 0.000000 0.000000
												}
											}
										}
									}
								}
								JOINT RightHandIndex1
								{
									OFFSET -3.253269 -0.520059 2.282866
									CHANNELS 3 Zrotation Yrotation Xrotation
									JOINT RightHandIndex2
									{
										OFFSET -6.341918 0.012473 0.178265
										CHANNELS 3 Zrotation Yrotation Xrotation
										JOINT RightHandIndex3
										{
											OFFSET -3.654874 -0.000008 -0.000000
											CHANNELS 3 Zrotation Yrotation Xrotation
											JOINT RightHandIndex4
											{
												OFFSET -2.327586 0.000000 0.000001
												CHANNELS 3 Zrotation Yrotation Xrotation
												JOINT RightHandIndexEnd
												{
													OFFSET -2.761789 -0.180658 -0.113078
													CHANNELS 3 Zrotation Yrotation Xrotation
													End Site
													{
														OFFSET 0.000000 0.000000 0.000000
													}
												}
											}
										}
									}
								}
								JOINT RightHandMiddle1
								{
									OFFSET -3.168106 0.246593 1.001031
									CHANNELS 3 Zrotation Yrotation Xrotation
									JOINT RightHandMiddle2
									{
										OFFSET -6.180830 -0.258835 -1.000896
										CHANNELS 3 Zrotation Yrotation Xrotation
										JOINT RightHandMiddle3
										{
											OFFSET -4.348905 -0.000001 -0.000001
											CHANNELS 3 Zrotation Yrotation Xrotation
											JOINT RightHandMiddle4
											{
												OFFSET -3.000243 -0.000003 -0.000002
												CHANNELS 3 Zrotation Yrotation Xrotation
												JOINT RightHandMiddleEnd
												{
													OFFSET -2.302518 -0.294373 -0.031706
													CHANNELS 3 Zrotation Yrotation Xrotation
													End Site
													{
														OFFSET 0.000000 0.000000 0.000000
													}
												}
											}
										}
									}
								}
								JOINT RightHandRing1
								{
									OFFSET -2.885693 -0.067952 -0.308858
									CHANNELS 3 Zrotation Yrotation Xrotation
									JOINT RightHandRing2
									{
										OFFSET -5.854197 -0.486132 -1.373732
										CHANNELS 3 Zrotation Yrotation Xrotation
										JOINT RightHandRing3
										{
											OFFSET -4.338814 -0.000003 -0.000000
											CHANNELS 3 Zrotation Yrotation Xrotation
											JOINT RightHandRing4
											{
												OFFSET -2.654906 -0.000003 0.000004
												CHANNELS 3 Zrotation Yrotation Xrotation
												JOINT RightHandRingEnd
												{
													OFFSET -1.933570 0.077522 -0.000052
													CHANNELS 3 Zrotation Yrotation Xrotation
													End Site
													{
														OFFSET 0.000000 0.000000 0.000000
													}
												}
											}
										}
									}
								}
								JOINT RightHandPinky1
								{
									OFFSET -2.866429 -0.342799 -1.584145
									CHANNELS 3 Zrotation Yrotation Xrotation
									JOINT RightHandPinky2
									{
										OFFSET -5.091370 -1.332054 -1.772385
										CHANNELS 3 Zrotation Yrotation Xrotation
										JOINT RightHandPinky3
										{
											OFFSET -3.062666 -0.000007 0.000000
											CHANNELS 3 Zrotation Yrotation Xrotation
											JOINT RightHandPinky4
											{
												OFFSET -1.546525 0.000005 -0.000003
												CHANNELS 3 Zrotation Yrotation Xrotation
												JOINT RightHandPinkyEnd
												{
													OFFSET -1.945122 -0.157721 0.057211
													CHANNELS 3 Zrotation Yrotation Xrotation
													End Site
													{
														OFFSET 0.000000 0.000000 0.000000
													}
												}
											}
										}
									}
								}
							}
						}
					}
				}
			}
		}
	}
	JOINT LeftLeg
	{
		OFFSET 10.043214 -8.434526 2.595655
		CHANNELS 3 Zrotation Yrotation Xrotation
		JOINT LeftShin
		{
			OFFSET -0.000002 -43.221752 -0.802913
			CHANNELS 3 Zrotation Yrotation Xrotation
			JOINT LeftFoot
			{
				OFFSET 0.000001 -42.155094 -3.481522
				CHANNELS 3 Zrotation Yrotation Xrotation
				JOINT LeftToeBase
				{
					OFFSET -0.000000 -5.059475 13.231529
					CHANNELS 3 Zrotation Yrotation Xrotation
					JOINT LeftToeEnd
					{
						OFFSET -0.009607 -1.647616 6.513017
						CHANNELS 3 Zrotation Yrotation Xrotation
						End Site
						{
							OFFSET 0.000000 0.000000 0.000000
						}
					}
				}
			}
		}
	}
	JOINT RightLeg
	{
		OFFSET -10.047277 -8.295259 2.620317
		CHANNELS 3 Zrotation Yrotation Xrotation
		JOINT RightShin
		{
			OFFSET 0.000000 -43.362209 -0.805556
			CHANNELS 3 Zrotation Yrotation Xrotation
			JOINT RightFoot
			{
				OFFSET 0.000002 -42.117393 -3.478399
				CHANNELS 3 Zrotation Yrotation Xrotation
				JOINT RightToeBase
				{
					OFFSET -0.000000 -5.079609 13.284196
					CHANNELS 3 Zrotation Yrotation Xrotation
					JOINT RightToeEnd
					{
						OFFSET 0.009533 -1.634383 6.460591
						CHANNELS 3 Zrotation Yrotation Xrotation
						End Site
						{
							OFFSET 0.000000 0.000000 0.000000
						}
					}
				}
			}
		}
	}
}
MOTION
Frames: 4
Frame Time: 0.033333
-4.546623 91.519913 -1.759554 0.792883 0.429207 5.902651 1.802894 0.403179 0.840734 -0.015279 1.075681 -3.826686 1.765223 -0.543072 12.337776 -4.734319 5.060995 4.981069 2.207896 8.851077 -3.396573 -3.389206 10.512131 -13.761353 0.000077 -0.000022 0.000006 0.008234 -0.094113 0.003601 0.794759 -3.830437 -10.714637 -0.782786 3.651141 -10.647395 -9.096693 -7.474970 9.434277 -19.621056 -24.433414 -48.039364 177.985138 -65.773605 -177.623260 19.979820 -4.658808 -28.274204 -5.882100 9.861279 0.702590 -10.936858 -0.360574 7.156196 -0.000000 8.774813 -0.000001 -16.526546 18.161423 5.902442 -1.844031 2.498501 -2.507275 -10.163589 4.678938 4.621105 -20.975994 -0.000004 0.000002 -21.226248 2.451692 -3.593994 0.000001 -0.000004 -0.000002 -1.362679 2.240795 -0.746323 -21.334887 0.584905 3.008321 -13.821197 -0.000003 0.000004 -23.887131 -0.249080 -0.839479 -59.780708 2.717290 -1.111324 -0.294024 1.679687 0.833257 -14.218192 0.093214 1.300579 -34.211998 -0.287565 0.967170 -20.033175 0.964535 1.212841 0.000000 -0.000000 0.000001 -3.440384 0.788234 0.501656 -15.928167 -3.167307 2.999703 -6.338817 0.000000 0.000003 -18.123413 3.648175 -4.905661 -0.000002 -0.000000 -0.000003 1.695757 13.662584 8.418599 46.424381 64.244438 -9.091743 -177.473648 45.120041 -178.903519 4.578686 -0.985596 -8.007206 2.243539 -5.255031 -3.180155 14.282868 -0.826593 6.952495 -0.000003 -12.690587 0.000001 16.208389 -18.258022 2.902523 1.665665 -1.955919 -2.878298 4.727789 -4.170582 4.993918 11.020508 0.000003 -0.000002 12.109026 -3.735708 -2.866780 0.000001 -0.000001 0.000001 1.291984 -1.928548 -1.498088 14.800109 0.567469 3.865604 14.242548 -1.341734 -6.660650 19.631935 0.143926 -0.648243 49.863495 -0.517597 -6.224720 0.353029 -1.511148 -0.031941 20.222761 3.684305 2.316627 18.787241 0.000006 0.000000 10.751607 -0.479868 1.397903 0.000000 0.000000 -0.000000 3.273803 0.305947 -0.580110 21.486782 11.830362 2.266129 8.162911 0.000001 0.000000 18.399048 -3.798979 -4.940566 0.000003 -0.000002 -0.000001 18.755119 25.154947 -25.029926 -0.555895 -1.544161 22.218384 -22.247280 -2.555496 5.410990 1.637788 -1.777044 -1.193557 -0.000000 0.000000 0.000002 -21.276182 -18.173067 -13.925362 0.283247 0.788419 33.424801 22.763502 3.850801 -15.836443 -1.434554 0.921988 -0.871724 -0.000000 -0.000000 -0.000001 
-4.586040 91.510979 -1.497937 0.817482 0.367836 6.055167 1.950283 0.486300 0.821033 0.045148 1.024308 -3.879204 1.821557 -0.466931 12.402325 -4.777446 5.007349 4.810091 2.096550 8.651054 -3.415844 -3.278919 10.376427 -13.442052 0.000076 -0.000023 0.000006 0.013605 -0.094435 0.009137 0.797020 -3.852012 -10.711188 -0.771164 3.648749 -10.646723 -9.407554 -7.339000 9.265909 -19.936651 -24.360088 -47.460384 178.133911 -65.081772 -177.704819 19.968891 -5.019149 -28.201553 -5.882102 9.861278 0.702592 -10.936859 -0.360572 7.156197 0.000001 8.774816 -0.000001 -16.566017 18.095901 5.900139 -1.844031 2.498504 -2.507276 -10.163591 4.678942 4.621105 -20.976000 -0.000003 0.000004 -21.226254 2.451693 -3.593992 0.000000 -0.000004 -0.000001 -1.362680 2.240794 -0.746323 -21.334887 0.584908 3.008322 -13.821198 -0.000003 0.000004 -23.887131 -0.249078 -0.839480 -59.945290 2.586031 -1.148138 -0.294025 1.679686 0.833256 -14.218195 0.093213 1.300580 -34.212006 -0.287561 0.967173 -20.033180 0.964535 1.212843 -0.000000 0.000001 0.000001 -3.440386 0.788232 0.501656 -15.928171 -3.167306 2.999705 -6.338818 0.000000 0.000003 -18.123417 3.648176 -4.905660 -0.000003 -0.000001 -0.000002 1.779099 13.668180 8.528255 45.711853 64.362038 -9.827770 -177.907608 45.025272 -179.074463 4.034021 -0.584201 -8.837380 2.243541 -5.255032 -3.180155 14.282877 -0.826593 6.952497 0.000001 -12.690590 -0.000001 16.133558 -18.201828 2.968287 1.665665 -1.955920 -2.878294 4.727794 -4.170584 4.993917 11.020513 0.000002 -0.000002 12.109032 -3.735711 -2.866777 0.000001 0.000000 -0.000001 1.291986 -1.928548 -1.498088 14.800114 0.567468 3.865603 14.242553 -1.341734 -6.660648 19.631939 0.143926 -0.648244 49.788055 -0.543817 -6.215303 0.353029 -1.511149 -0.031942 20.222767 3.684304 2.316629 18.787247 0.000003 -0.000001 10.751611 -0.479869 1.397903 0.000000 0.000000 -0.000000 3.273806 0.305947 -0.580113 21.486794 11.830365 2.266132 8.162915 -0.000002 -0.000000 18.399052 -3.798982 -4.940567 0.000003 -0.000002 -0.000001 18.738943 25.126545 -24.877642 -0.525483 -1.473596 22.023705 -21.879341 -2.111168 4.968881 1.628557 -1.837017 -1.380369 -0.000000 0.000001 0.000002 -21.290035 -18.453308 -13.812608 0.276496 0.798669 33.192314 23.005583 3.999243 -15.947869 -1.435512 0.894051 -0.923928 -0.000000 -0.000000 -0.000001 
-4.345398 91.561470 -1.200337 0.982842 0.139672 6.317533 2.120675 0.514108 0.689395 0.121098 0.973897 -3.906783 1.869856 -0.371272 12.419921 -4.896757 5.029755 4.674741 1.994865 8.367002 -3.418900 -3.203213 10.247018 -13.103767 0.000077 -0.000022 0.000006 0.023632 -0.120012 0.023994 0.792042 -3.859066 -10.701960 -0.753339 3.632655 -10.641300 -9.907636 -7.196806 9.037033 -20.150074 -24.194582 -46.906040 178.722031 -64.549271 -178.252487 19.858839 -5.456420 -27.340336 -5.882102 9.861278 0.702589 -10.936858 -0.360576 7.156198 -0.000001 8.774814 -0.000002 -16.673014 18.031017 5.858670 -1.844030 2.498503 -2.507276 -10.163589 4.678938 4.621105 -20.975996 -0.000001 0.000003 -21.226255 2.451696 -3.593992 0.000000 -0.000005 -0.000001 -1.362680 2.240795 -0.746323 -21.334890 0.584909 3.008321 -13.821198 -0.000003 0.000004 -23.887129 -0.249077 -0.839481 -60.133835 2.508494 -1.228081 -0.294025 1.679687 0.833256 -14.218192 0.093215 1.300580 -34.212006 -0.287561 0.967171 -20.033180 0.964537 1.212842 -0.000000 0.000000 0.000001 -3.440385 0.788234 0.501655 -15.928167 -3.167306 2.999703 -6.338819 -0.000001 0.000002 -18.123413 3.648178 -4.905661 -0.000004 -0.000002 -0.000003 1.784328 13.585926 8.596604 45.071896 64.633018 -10.289025 -178.370117 45.080379 -179.231964 3.402759 -0.157842 -9.740140 2.243540 -5.255033 -3.180156 14.282875 -0.826592 6.952496 0.000001 -12.690591 -0.000002 15.927041 -18.126284 3.048488 1.665663 -1.955920 -2.878295 4.727792 -4.170583 4.993918 11.020513 0.000002 0.000000 12.109031 -3.735711 -2.866779 0.000001 -0.000000 0.000001 1.291984 -1.928548 -1.498090 14.800111 0.567467 3.865603 14.242553 -1.341736 -6.660647 19.631937 0.143924 -0.648242 49.573906 -0.569792 -6.200515 0.353029 -1.511149 -0.031940 20.222767 3.684305 2.316629 18.787245 0.000004 -0.000001 10.751610 -0.479868 1.397904 0.000000 0.000000 -0.000000 3.273804 0.305946 -0.580110 21.486790 11.830364 2.266130 8.162918 0.000001 0.000000 18.399052 -3.798980 -4.940567 0.000003 -0.000003 -0.000001 18.437603 25.161404 -24.935946 -0.534770 -1.421066 22.166456 -21.585094 -1.623848 4.506835 1.627444 -1.843536 -1.524904 0.000000 -0.000000 0.000002 -21.631525 -18.793615 -13.635818 0.318104 0.833453 32.484928 23.356802 4.252518 -15.633090 -1.433794 0.858246 -0.941643 -0.000000 -0.000000 -0.000001 
-3.844876 91.653603 -0.870361 1.353777 -0.553784 6.731728 2.361326 0.561318 0.519462 0.206616 0.937733 -3.930484 1.821372 -0.344421 12.356492 -5.327802 5.135190 4.562299 1.910662 8.157485 -3.413383 -3.289407 10.202641 -12.802681 0.000077 -0.000023 0.000006 0.023024 -0.107579 0.031995 0.789742 -3.848927 -10.676719 -0.751825 3.644739 -10.625548 -10.602661 -6.946064 8.693445 -20.286785 -23.752211 -46.512569 179.688675 -64.139938 -179.074600 19.501293 -5.874521 -26.036478 -5.882101 9.861278 0.702590 -10.936861 -0.360574 7.156198 0.000001 8.774814 -0.000001 -16.789471 17.935295 5.806416 -1.844031 2.498503 -2.507275 -10.163589 4.678939 4.621106 -20.975994 -0.000003 0.000004 -21.226254 2.451694 -3.593992 0.000000 -0.000005 -0.000003 -1.362679 2.240795 -0.746323 -21.334896 0.584908 3.008323 -13.821197 -0.000004 0.000004 -23.887131 -0.249078 -0.839478 -60.227921 2.491122 -1.286895 -0.294024 1.679687 0.833255 -14.218192 0.093214 1.300581 -34.212006 -0.287563 0.967174 -20.033176 0.964536 1.212846 0.000000 0.000001 0.000002 -3.440385 0.788234 0.501656 -15.928165 -3.167308 2.999704 -6.338819 -0.000001 0.000002 -18.123411 3.648176 -4.905659 -0.000003 -0.000002 -0.000002 1.481233 13.597626 8.531028 44.433743 64.937851 -10.661276 -178.997833 45.311836 -179.523056 2.702171 0.279930 -11.053668 2.243539 -5.255033 -3.180155 14.282873 -0.826591 6.952495 0.000000 -12.690593 -0.000001 15.698870 -18.027311 3.123407 1.665664 -1.955921 -2.878296 4.727795 -4.170582 4.993916 11.020513 0.000004 -0.000001 12.109031 -3.735710 -2.866781 0.000001 -0.000000 -0.000001 1.291984 -1.928548 -1.498087 14.800113 0.567468 3.865603 14.242553 -1.341734 -6.660650 19.631941 0.143925 -0.648243 49.250076 -0.547168 -6.124936 0.353029 -1.511150 -0.031941 20.222771 3.684308 2.316627 18.787249 0.000004 -0.000001 10.751611 -0.479867 1.397904 -0.000000 -0.000001 0.000000 3.273804 0.305948 -0.580112 21.486792 11.830366 2.266131 8.162916 -0.000000 0.000000 18.399048 -3.798977 -4.940567 0.000003 -0.000002 -0.000001 17.733408 25.375561 -25.112366 -0.538886 -1.391873 22.666008 -21.403471 -0.943435 3.691900 1.631989 -1.865847 -1.591610 0.000000 -0.000000 0.000002 -22.310678 -19.021358 -13.632897 0.368138 0.885321 31.358967 23.949333 4.669265 -14.947911 -1.433798 0.867994 -0.944581 -0.000000 -0.000000 -0.000001 
